<svg width="155" height="36" viewBox="0 0 155 36" fill="none" xmlns="http://www.w3.org/2000/svg">
<path fill-rule="evenodd" clip-rule="evenodd" d="M18.1682 0.00448198C18.3404 0.00390985 18.5126 0.00206522 18.6848 0.000194719C19.8358 -0.00645439 20.9449 0.15771 22.0653 0.411772L22.2023 0.442527C23.5948 0.75758 24.8961 1.22613 26.1774 1.85786L26.3371 1.93517C27.5348 2.518 28.6572 3.25618 29.6777 4.11226L29.7846 4.20122C30.1666 4.51985 30.5382 4.84242 30.8844 5.2003C30.9293 5.2466 30.9555 5.27366 30.9832 5.29918C31.0222 5.3351 31.064 5.36797 31.1645 5.44709C31.3424 5.59851 31.4869 5.75786 31.6378 5.93539C31.7584 6.07497 31.884 6.2089 32.0101 6.34339L32.0285 6.36296C33.9027 8.42716 35.1681 11.036 35.8476 13.7232L35.9345 14.0566C36.1253 14.7971 36.2705 15.5214 36.3296 16.2853L36.3452 16.4701C36.359 16.6421 36.3706 16.814 36.3816 16.9861L36.3937 17.1265C36.4053 17.3303 36.4003 17.4362 36.2747 17.6009L36.1257 17.7166C35.8327 17.9565 35.5684 18.2118 35.3039 18.4827C35.1794 18.6045 35.0551 18.7175 34.923 18.8303C34.6354 19.081 34.3677 19.3496 34.0993 19.6206L33.9412 19.7794C33.7756 19.9457 33.6102 20.1122 33.4449 20.2787C33.2269 20.4983 33.0087 20.7176 32.7904 20.9369L32.6412 21.0877C32.387 21.3429 32.1284 21.5883 31.8552 21.8231C31.7368 21.9251 31.6229 22.0313 31.5101 22.1396L31.2609 22.3774C30.8839 22.7345 30.5024 23.0736 30.093 23.3934L29.9062 23.5412C29.7682 23.6503 29.6298 23.7589 29.4911 23.8671C29.3299 23.9928 29.1695 24.1197 29.0095 24.2471C28.4024 24.7284 27.7797 25.1718 27.1266 25.5885L26.9998 25.6701C24.4591 27.2995 21.5049 28.4057 18.4619 28.3923C18.2911 28.3916 18.1204 28.3923 17.9497 28.393C15.8 28.3948 13.7748 27.8189 11.8204 26.953L11.6781 26.8906C9.80874 26.0662 8.15674 24.8322 6.58718 23.5399C6.49091 23.4608 6.3941 23.3825 6.29723 23.3041C5.98105 23.0484 5.67475 22.7848 5.3742 22.5109C5.24661 22.3952 5.1172 22.2822 4.98672 22.1698C4.79904 22.0065 4.62401 21.8343 4.44977 21.6569C4.34559 21.5546 4.23766 21.4598 4.12649 21.3651C3.88135 21.1543 3.65503 20.927 3.42947 20.6956C3.2745 20.5379 3.11585 20.3876 2.94855 20.243C2.49707 19.8494 2.05459 19.4466 1.62101 19.0335C1.46876 18.8886 1.31543 18.7455 1.15847 18.6057C0.412325 17.9392 0.177355 17.7293 0.081158 17.4682C0.0369392 17.3482 0.0220426 17.2174 0.000298416 17.0265C-0.00489602 16.648 0.0584562 16.2879 0.133073 15.9182C0.149267 15.8134 0.16487 15.7086 0.179784 15.6036C0.223733 15.3116 0.282186 15.024 0.344424 14.7354L0.376367 14.5824C0.911598 12.019 1.93515 9.59205 3.51468 7.49387L3.58641 7.39744C4.37055 6.34465 5.24174 5.33657 6.27754 4.52361C6.41683 4.41276 6.54688 4.29613 6.67753 4.1753C6.99065 3.89443 7.33151 3.65481 7.67713 3.41631C7.74778 3.36753 7.81826 3.31852 7.88854 3.26921C8.91451 2.55017 10.0217 1.94673 11.1678 1.44257L11.2815 1.39243C12.8424 0.714262 14.5782 0.254658 16.2699 0.0780607L16.4288 0.0613752C17.0079 0.00882579 17.5872 0.00564245 18.1682 0.00448198ZM29.5514 14.5686C29.7685 14.7595 29.9839 14.9524 30.1978 15.1468C30.318 15.2552 30.4402 15.3608 30.5632 15.4659C30.7918 15.6645 31.0036 15.8786 31.2161 16.094C31.3657 16.2448 31.517 16.3895 31.6793 16.5264C31.9245 16.7358 32.1518 16.9625 32.38 17.19L32.3912 17.2012L32.5082 17.3174C32.7054 17.5152 32.8846 17.7167 33.0587 17.9354L33.1773 17.9947C33.0955 18.1842 33.0064 18.291 32.8473 18.4211C32.5657 18.6596 32.3087 18.9183 32.0501 19.1813C31.76 19.4764 31.4676 19.7616 31.1536 20.0314C30.9848 20.1807 30.8285 20.3416 30.6717 20.5031L30.6374 20.5384C30.3441 20.836 30.0428 21.1091 29.7146 21.3685C29.551 21.501 29.3974 21.6408 29.2432 21.7842C28.9389 22.0639 28.6203 22.3184 28.2935 22.571C28.1439 22.6867 27.9962 22.8043 27.8495 22.9237C27.4057 23.285 26.9564 23.619 26.4734 23.9274L26.2822 24.0541C24.3103 25.3575 22.0676 26.3121 19.7102 26.5971L19.5739 26.6139C17.8372 26.8091 16.0895 26.5918 14.4301 26.0631L14.2764 26.0142C12.2078 25.3444 10.3121 24.2738 8.61615 22.9188L8.44512 22.784C8.30356 22.6717 8.16304 22.5582 8.02288 22.4442L7.87132 22.3219C7.18502 21.7649 6.51825 21.1886 5.87314 20.5844C5.75899 20.4776 5.64451 20.3711 5.53001 20.2647C5.13101 19.893 4.73733 19.5183 4.35461 19.1298C4.23294 19.0101 4.10759 18.8987 3.97756 18.7882C3.73853 18.5843 3.53664 18.3547 3.33609 18.1134C3.42241 17.8195 3.59497 17.6534 3.80818 17.4481L3.81812 17.4386L3.92452 17.3341C4.13157 17.1323 4.34414 16.9399 4.5648 16.7531C4.74609 16.5891 4.91759 16.4157 5.08939 16.242L5.14555 16.1853C5.40776 15.9208 5.66916 15.6601 5.95387 15.4196C6.08162 15.311 6.20516 15.1983 6.32896 15.0853L6.35062 15.0655C6.60348 14.8376 6.8626 14.6196 7.12742 14.4057C7.26171 14.297 7.39506 14.1876 7.52788 14.0771C8.08877 13.6126 8.66764 13.1849 9.26874 12.774L9.39707 12.6853C11.4004 11.3018 13.5725 10.2701 15.9726 9.80768L16.1275 9.77596C21.0561 8.78749 25.9527 11.4304 29.5514 14.5686ZM20.3508 1.8813L20.1862 1.85717C18.2938 1.56454 16.3342 1.72952 14.4784 2.17263L14.3129 2.21313C12.9214 2.55236 11.6194 3.10023 10.3671 3.7918L10.2194 3.87427C9.05226 4.52508 7.91208 5.31459 6.98029 6.27653C6.83596 6.42719 6.68924 6.57498 6.54114 6.72194C6.16374 7.08904 5.80847 7.45586 5.47998 7.86838L5.35461 8.02712C5.04275 8.40653 4.74959 8.79448 4.47398 9.2009L4.34606 9.39163C2.90603 11.5364 1.95786 14.2795 1.91367 16.8668C1.93399 16.8668 1.94735 16.8668 1.95977 16.8634C1.98363 16.8568 2.00404 16.8377 2.06364 16.7819L2.1811 16.6624L2.31273 16.5292C2.93659 15.8958 3.57771 15.2849 4.23853 14.6902C4.3898 14.5552 4.54023 14.4194 4.68927 14.2819C5.28908 13.7267 5.90661 13.1925 6.54209 12.6784L6.71911 12.5359C7.24084 12.1157 7.77184 11.7171 8.32715 11.3423L8.44329 11.2641C8.92558 10.9384 9.40883 10.616 9.91062 10.3208C13.6859 8.16354 18.0218 7.35806 22.2532 8.50918L22.4406 8.56106C23.7752 8.92513 25.0626 9.46866 26.2703 10.1409L26.4155 10.2222C27.4264 10.7828 28.3929 11.3892 29.287 12.1239C29.4296 12.2413 29.5735 12.3565 29.7195 12.4697C30.0376 12.716 30.351 12.9633 30.6499 13.233L30.6609 13.2431C30.7901 13.362 30.9191 13.4806 31.0515 13.5959C31.2433 13.7609 31.4291 13.9278 31.6066 14.1081C31.7067 14.21 31.8065 14.309 31.9143 14.4029C32.151 14.6028 32.3733 14.8129 32.5915 15.0325C32.9099 15.3542 33.2301 15.673 33.5595 15.9835L33.683 16.0992C33.9636 16.3628 34.2494 16.618 34.5432 16.8668C34.5183 16.2652 34.4592 15.6838 34.3443 15.0922L34.3208 14.972C34.2074 14.3805 34.0903 13.7927 33.9027 13.2193L33.8313 13.0105C33.6329 12.4039 33.389 11.8223 33.1212 11.2435L33.0601 11.1121C32.5843 10.0814 31.9828 9.14145 31.2798 8.25075C31.2205 8.17629 31.1614 8.10175 31.1023 8.02712C30.3892 7.08376 29.5038 6.24845 28.592 5.4983L28.4919 5.41676C26.8412 4.0662 24.9404 3.06062 22.9012 2.44018L22.7373 2.3911C21.9526 2.15444 21.1613 2.00108 20.3508 1.8813Z" fill="#020227"/>
<path d="M22.9153 12.5355C23.7256 13.2206 24.3322 13.9614 24.8137 14.9086C24.8429 14.9653 24.8721 15.0221 24.9022 15.0805C25.7527 16.8396 25.7226 18.8607 25.1042 20.6825C24.4637 22.4738 23.1146 23.8307 21.4173 24.6529C20.4384 25.1098 19.387 25.3145 18.31 25.3092C18.2372 25.3089 18.1644 25.3086 18.0893 25.3082C16.4431 25.2864 14.7146 24.7645 13.4823 23.6296C13.4306 23.586 13.3788 23.5425 13.3255 23.4977C12.2954 22.6117 11.6313 21.4738 11.2279 20.1886C11.2145 20.1481 11.2011 20.1076 11.1873 20.0659C10.7055 18.5637 10.8768 16.6252 11.5246 15.2052C11.5551 15.1371 11.5856 15.0689 11.617 14.9987C12.3445 13.4581 13.7657 12.0884 15.358 11.4589C17.9351 10.5367 20.7512 10.7587 22.9153 12.5355Z" fill="#020227"/>
<path d="M0.369141 21.8506C0.956473 21.8506 1.54381 21.8506 2.14894 21.8506C2.34668 22.3779 2.34668 22.3779 2.42309 22.6288C2.83756 23.9525 3.3922 25.2057 4.16604 26.3594C4.198 26.4072 4.22997 26.4551 4.26291 26.5044C5.34404 28.11 6.59339 29.5215 8.14091 30.6902C8.17322 30.7147 8.20553 30.7391 8.23882 30.7643C9.15042 31.4483 10.1291 32.0565 11.1666 32.5294C11.2353 32.561 11.2353 32.561 11.3054 32.5932C12.5429 33.1572 13.8092 33.5649 15.1414 33.8345C15.2257 33.8523 15.31 33.8701 15.3943 33.8878C15.6255 33.9353 15.8575 33.9753 16.0907 34.0125C16.1291 34.0187 16.1675 34.0249 16.2071 34.0313C18.6014 34.398 21.2275 34.0961 23.5065 33.3006C23.5554 33.2837 23.6044 33.2667 23.6549 33.2492C25.6122 32.5616 27.414 31.5377 28.9645 30.1563C29.0085 30.1174 29.0525 30.0785 29.0979 30.0384C29.8743 29.3471 30.6562 28.6196 31.2782 27.7832C31.3286 27.7175 31.379 27.6517 31.4293 27.586C32.0604 26.7531 32.6201 25.875 33.0647 24.9286C33.116 24.8198 33.1689 24.7119 33.2219 24.6039C33.4283 24.1768 33.6104 23.7431 33.7811 23.3004C33.8001 23.2514 33.8192 23.2024 33.8388 23.1519C34.0014 22.7215 34.1168 22.2977 34.2446 21.8506C34.8711 21.8506 35.4975 21.8506 36.143 21.8506C35.568 23.7606 34.9286 25.6276 33.8293 27.3086C33.79 27.37 33.7507 27.4313 33.7102 27.4945C33.1474 28.3574 32.506 29.1589 31.8122 29.919C31.7219 30.0203 31.6317 30.1217 31.5415 30.223C31.1563 30.6495 30.7598 31.0305 30.3109 31.3901C30.1721 31.5036 30.041 31.621 29.91 31.7433C27.5466 33.859 24.4918 35.0424 21.43 35.6737C21.3688 35.6871 21.3076 35.7005 21.2446 35.7143C19.2881 36.1323 17.0382 36.0698 15.0821 35.6737C14.9781 35.6532 14.9781 35.6532 14.872 35.6323C14.078 35.4732 13.2954 35.2898 12.5311 35.0211C12.482 35.0041 12.4329 34.9871 12.3823 34.9696C10.2932 34.2447 8.38066 33.2131 6.65775 31.8174C6.60643 31.7774 6.55512 31.7374 6.50225 31.6962C3.99338 29.7093 2.14948 26.9967 0.962406 24.0457C0.944826 24.0025 0.927246 23.9593 0.909133 23.9148C0.732269 23.4772 0.582044 23.0387 0.465546 22.581C0.450598 22.5223 0.450598 22.5223 0.435347 22.4624C0.383832 22.2473 0.369141 22.0758 0.369141 21.8506Z" fill="#020227"/>
<path d="M28.1954 7.61323C28.2548 7.65392 28.3141 7.6946 28.3753 7.73652C29.6467 8.63528 30.964 9.78826 31.8737 11.0542C31.7804 11.3239 31.5656 11.4588 31.3472 11.6252C31.2915 11.6688 31.2915 11.6688 31.2348 11.7132C31.0873 11.8273 30.9514 11.9311 30.7831 12.0122C30.6652 12.0601 30.6652 12.0601 30.6278 12.2407C30.5887 12.2407 30.5495 12.2407 30.5092 12.2407C30.4253 12.1474 30.3457 12.0502 30.2682 11.9515C29.5205 11.0213 28.6748 10.226 27.7208 9.51168C27.6812 9.48149 27.6415 9.4513 27.6007 9.4202C25.7479 8.01312 23.6422 7.09766 21.3729 6.60468C21.3274 6.59476 21.2819 6.58484 21.235 6.57461C19.6096 6.23099 17.9089 6.20554 16.2699 6.4471C16.0295 6.48189 15.8016 6.49407 15.5589 6.48603C15.5287 6.28711 15.4993 6.0881 15.4699 5.88906C15.4614 5.83312 15.4529 5.77717 15.4442 5.71954C15.4 5.41772 15.3708 5.1299 15.3809 4.82489C19.4391 3.4934 24.8366 5.29334 28.1954 7.61323Z" fill="#020227"/>
<path d="M25.8826 27.7842C26.1463 28.0292 26.3481 28.3016 26.5538 28.5962C26.5864 28.642 26.619 28.6878 26.6526 28.7349C26.8912 29.0743 26.8912 29.0743 26.8912 29.208C25.2984 30.4684 23.2063 31.0622 21.2552 31.4624C21.2055 31.4727 21.1558 31.4829 21.1046 31.4934C20.4445 31.6275 19.8057 31.7088 19.1319 31.7118C19.0714 31.7121 19.0109 31.7125 18.9485 31.7128C18.8206 31.7134 18.6926 31.7138 18.5647 31.714C18.3738 31.7145 18.183 31.7164 17.9922 31.7183C16.8263 31.7243 15.7005 31.5924 14.5661 31.3252C14.488 31.3073 14.4099 31.2893 14.3318 31.2713C13.722 31.1291 13.1254 30.9561 12.5342 30.7505C12.6774 30.1955 12.9045 29.6751 13.1274 29.1487C13.4267 29.2125 13.7229 29.2824 14.0185 29.3614C16.3452 29.9799 18.8832 30.2307 21.2552 29.6826C21.3446 29.6621 21.3446 29.6621 21.4358 29.6412C21.8339 29.5476 22.2272 29.4412 22.6197 29.3267C22.66 29.3153 22.7004 29.304 22.7419 29.2923C23.8591 28.9746 24.9241 28.434 25.8826 27.7842Z" fill="#020227"/>
<path d="M55.1815 17.466C56.2855 18.102 56.8375 19.062 56.8375 20.346C56.8375 21.414 56.4595 22.29 55.7035 22.974C54.9475 23.658 54.0175 24 52.9135 24H47.5675V11.4H52.5355C53.6155 11.4 54.5215 11.736 55.2535 12.408C55.9975 13.068 56.3695 13.914 56.3695 14.946C56.3695 15.99 55.9735 16.83 55.1815 17.466ZM52.5355 13.722H50.0515V16.494H52.5355C52.9195 16.494 53.2375 16.362 53.4895 16.098C53.7535 15.834 53.8855 15.504 53.8855 15.108C53.8855 14.712 53.7595 14.382 53.5075 14.118C53.2555 13.854 52.9315 13.722 52.5355 13.722ZM52.9135 21.678C53.3335 21.678 53.6815 21.54 53.9575 21.264C54.2335 20.976 54.3715 20.616 54.3715 20.184C54.3715 19.764 54.2335 19.416 53.9575 19.14C53.6815 18.852 53.3335 18.708 52.9135 18.708H50.0515V21.678H52.9135ZM61.8499 21.624H66.6559V24H59.3659V11.4H61.8499V21.624ZM68.9671 11.4H71.4511V24H68.9671V11.4ZM81.9735 11.4H84.4575V24H82.5675L77.1675 16.296V24H74.6835V11.4H76.5735L81.9735 19.086V11.4ZM97.5408 24H94.6788L90.1788 18.096V24H87.6948V11.4H90.1788V16.962L94.4988 11.4H97.3608L92.6988 17.52L97.5408 24ZM102.153 21.624H106.959V24H99.669V11.4H102.153V21.624ZM111.754 21.624H117.064V24H109.27V11.4H116.974V13.776H111.754V16.458H116.524V18.798H111.754V21.624Z" fill="#020227"/>
<path d="M122.169 24.392C121.977 24.584 121.743 24.68 121.467 24.68C121.191 24.68 120.957 24.584 120.765 24.392C120.573 24.2 120.477 23.966 120.477 23.69C120.477 23.414 120.573 23.18 120.765 22.988C120.957 22.796 121.191 22.7 121.467 22.7C121.743 22.7 121.977 22.796 122.169 22.988C122.361 23.18 122.457 23.414 122.457 23.69C122.457 23.966 122.361 24.2 122.169 24.392ZM133.626 24.5H132.186L128.766 19.118L125.346 24.5H123.906L128.046 18.002L124.176 11.9H125.598L128.766 16.868L131.934 11.9H133.356L129.486 18.002L133.626 24.5ZM144.517 11.9L139.963 19.334V24.5H138.703V19.298L134.167 11.9H135.589L139.351 18.074L143.095 11.9H144.517ZM146.641 23.312H153.337V24.5H145.237V23.312L151.753 13.088H145.417V11.9H153.157V13.088L146.641 23.312Z" fill="#020227"/>
</svg>
